<svg width="24" height="24" viewBox="0 0 24 24" fill="none" xmlns="http://www.w3.org/2000/svg">
<path fill-rule="evenodd" clip-rule="evenodd" d="M12 13.2521L12.022 13.2261C13.273 14.4431 15.077 15.8571 16.642 15.8571C17.1534 15.8623 17.6609 15.7667 18.1353 15.5756C18.6098 15.3846 19.0418 15.1018 19.4069 14.7436C19.7719 14.3853 20.0627 13.9586 20.2626 13.4878C20.4626 13.0171 20.5677 12.5115 20.572 12.0001C20.572 9.87007 18.814 8.14307 16.642 8.14307C14.979 8.14307 13.342 9.37707 12 10.7491V13.2521ZM16.586 14.2971C17.923 14.2971 19.007 13.2691 19.007 12.0001C19.007 10.7321 17.923 9.70307 16.582 9.70307C15.24 9.70307 13.933 10.9461 13.016 12.0001C13.624 12.6861 15.244 14.2971 16.582 14.2971H16.586Z" fill="white"/>
<path fill-rule="evenodd" clip-rule="evenodd" d="M12.052 13.3031L11.966 13.2171C10.753 14.4221 8.96599 15.8571 7.35899 15.8571C6.84755 15.8623 6.3401 15.7667 5.86567 15.5756C5.39124 15.3846 4.95914 15.1018 4.59411 14.7436C4.22908 14.3853 3.93828 13.9586 3.73835 13.4878C3.53842 13.0171 3.4333 12.5115 3.42899 12.0001C3.42899 9.87007 5.18599 8.14307 7.35899 8.14307C9.04699 8.14307 10.616 9.47607 11.936 10.8991L12.052 10.7791V13.3031ZM7.41399 14.2971C6.07299 14.2971 4.98999 13.2701 4.98999 12.0001C4.98999 10.7321 6.07399 9.70307 7.41499 9.70307C8.75699 9.70307 10.064 10.9461 10.981 12.0001C10.373 12.6861 8.75199 14.2971 7.41399 14.2971Z" fill="white"/>
<path d="M10.817 11.8591L10.92 11.9491L11.97 13.2861C13.204 14.4391 15.004 15.8571 16.642 15.8571C17.5453 15.8639 18.4231 15.5577 19.1263 14.9906C19.8294 14.4235 20.3144 13.6304 20.499 12.7461C20.164 13.3501 18.999 14.2971 16.916 14.2761C16.8052 14.2893 16.6936 14.2963 16.582 14.2971C15.24 14.2971 13.624 12.6861 13.016 12.0001L13.029 11.9831L11.764 10.4621L10.5 9.2621C9.49001 8.4901 8.44301 8.0061 7.29401 8.0061C5.35301 8.0061 3.79301 9.5491 3.48001 11.3921C4.34601 9.8231 6.21001 9.3171 7.84701 9.7501C8.91901 9.9341 9.84901 10.7871 10.817 11.8591Z" fill="white"/>
</svg>
