<svg width="88" height="40" viewBox="0 0 88 40" fill="none" xmlns="http://www.w3.org/2000/svg">
<path d="M71.0586 33.234C65.2757 33.234 59.1702 29.4534 56.1734 26.711C52.8957 23.7104 43.8921 13.9438 43.8523 13.9002C37.9479 7.31258 30.009 0 22.0891 0C12.5503 0 4.23001 6.60657 2.06641 15.3578C2.23152 14.7808 5.26436 6.76409 16.6479 6.76409C22.4308 6.76409 28.5363 10.5447 31.533 13.2872C34.8107 16.2877 43.8143 26.0543 43.8542 26.0979C49.7585 32.6855 57.6974 39.9981 65.6192 39.9981C75.1581 39.9981 83.4765 33.3915 85.642 24.6404C85.4769 25.2173 82.444 33.234 71.0605 33.234H71.0586Z" fill="#29AAE1"/>
<path d="M43.8514 26.0994C43.8306 26.0748 41.238 23.264 38.3305 20.197C36.759 22.0626 34.4948 24.6039 31.8928 26.8833C27.0418 31.1345 23.8894 32.0266 22.0864 32.0266C15.2844 32.0266 9.73496 26.6308 9.73496 19.9996C9.73496 13.3684 15.2768 8.01438 22.0864 7.97263C22.3331 7.97263 22.633 7.9973 22.9936 8.06183C20.9477 7.2761 18.7746 6.76367 16.6451 6.76367C5.26542 6.76367 2.23259 14.7766 2.06557 15.3574C1.69738 16.8491 1.5 18.4016 1.5 19.9996C1.5 31.0283 10.5966 39.9996 21.9403 39.9996C26.6698 39.9996 31.9668 37.576 37.4214 32.7933C40.0006 30.5329 42.2363 28.115 43.916 26.1716C43.8951 26.1469 43.8723 26.1241 43.8514 26.0994Z" fill="url(#paint0_linear_2330_19292)"/>
<path d="M43.8536 13.9002C43.8745 13.9248 46.467 16.7356 49.3746 19.8026C50.946 17.937 53.2102 15.3957 55.8122 13.1163C60.6632 8.86506 63.8156 7.97305 65.6186 7.97305C72.4207 7.97305 77.9701 13.3688 77.9701 20C77.9701 26.5933 72.4283 31.9852 65.6186 32.027C65.3719 32.027 65.072 32.0023 64.7114 31.9377C66.7574 32.7235 68.9305 33.2359 71.0599 33.2359C82.4416 33.2359 85.4744 25.223 85.6414 24.6422C86.0096 23.1505 86.207 21.598 86.207 20C86.207 8.97134 76.9623 0 65.6186 0C60.8891 0 55.7401 2.42361 50.2837 7.2063C47.7044 9.46669 45.4687 11.8846 43.7891 13.8281C43.8099 13.8527 43.8327 13.8755 43.8536 13.9002Z" fill="url(#paint1_linear_2330_19292)"/>
<defs>
<linearGradient id="paint0_linear_2330_19292" x1="32.7602" y1="37.3824" x2="4.90291" y2="8.53441" gradientUnits="userSpaceOnUse">
<stop offset="0.22" stop-color="#EC1E79"/>
<stop offset="0.89" stop-color="#522784"/>
</linearGradient>
<linearGradient id="paint1_linear_2330_19292" x1="54.9278" y1="2.63428" x2="82.7851" y2="31.4823" gradientUnits="userSpaceOnUse">
<stop offset="0.21" stop-color="#F05A24"/>
<stop offset="0.68" stop-color="#FAAF3B"/>
</linearGradient>
</defs>
</svg>
